<?xml version="1.0" encoding="utf-8"?>
<svg width="209px" height="210px" viewBox="0 0 209 210" version="1.1" xmlns:xlink="http://www.w3.org/1999/xlink" xmlns="http://www.w3.org/2000/svg">
  <defs>
    <filter filterUnits="userSpaceOnUse" color-interpolation-filters="sRGB" id="filter_1">
      <feFlood flood-opacity="0" result="BackgroundImageFix" />
      <feBlend mode="normal" in="SourceGraphic" in2="BackgroundImageFix" result="shape" />
      <feGaussianBlur stdDeviation="19" result="effect0_gaussianBlur" />
    </filter>
    <path d="M21.999 0L73.001 0Q73.5411 0 74.0804 0.0264988Q74.6198 0.0529975 75.1573 0.105931Q75.6947 0.158865 76.2289 0.238106Q76.7631 0.317347 77.2928 0.422705Q77.8225 0.528062 78.3463 0.659282Q78.8702 0.790503 79.387 0.947269Q79.9038 1.10404 80.4122 1.28597Q80.9207 1.46791 81.4197 1.67457Q81.9186 1.88124 82.4068 2.11214Q82.895 2.34304 83.3713 2.59761Q83.8475 2.85219 84.3107 3.12983Q84.774 3.40747 85.223 3.7075Q85.672 4.00753 86.1058 4.32924Q86.5396 4.65094 86.957 4.99354Q87.3745 5.33614 87.7746 5.69882Q88.1748 6.06149 88.5566 6.44336Q88.9385 6.82523 89.3012 7.22537Q89.6639 7.62552 90.0065 8.04298Q90.3491 8.46044 90.6708 8.89421Q90.9925 9.32798 91.2925 9.77701Q91.5925 10.226 91.8702 10.6893Q92.1478 11.1525 92.4024 11.6287Q92.657 12.105 92.8879 12.5932Q93.1188 13.0814 93.3254 13.5803Q93.5321 14.0793 93.714 14.5878Q93.896 15.0962 94.0527 15.613Q94.2095 16.1298 94.3407 16.6537Q94.4719 17.1775 94.5773 17.7072Q94.6826 18.2369 94.7619 18.7711Q94.8411 19.3053 94.8941 19.8427Q94.947 20.3802 94.9735 20.9196Q95 21.459 95 21.999L95 74.001Q95 74.541 94.9735 75.0804Q94.947 75.6198 94.8941 76.1573Q94.8411 76.6947 94.7619 77.2289Q94.6826 77.7631 94.5773 78.2928Q94.4719 78.8224 94.3407 79.3463Q94.2095 79.8702 94.0527 80.387Q93.896 80.9037 93.714 81.4122Q93.5321 81.9207 93.3254 82.4196Q93.1188 82.9186 92.8879 83.4068Q92.657 83.895 92.4024 84.3713Q92.1478 84.8475 91.8702 85.3107Q91.5925 85.7739 91.2925 86.223Q90.9925 86.672 90.6708 87.1058Q90.3491 87.5396 90.0065 87.957Q89.6639 88.3745 89.3012 88.7746Q88.9385 89.1748 88.5566 89.5566Q88.1748 89.9385 87.7746 90.3012Q87.3745 90.6639 86.957 91.0065Q86.5396 91.3491 86.1058 91.6707Q85.672 91.9925 85.223 92.2925Q84.774 92.5925 84.3108 92.8702Q83.8475 93.1478 83.3713 93.4024Q82.895 93.657 82.4068 93.8878Q81.9186 94.1188 81.4197 94.3254Q80.9207 94.5321 80.4122 94.714Q79.9038 94.896 79.387 95.0527Q78.8702 95.2095 78.3463 95.3407Q77.8225 95.4719 77.2928 95.5773Q76.7631 95.6826 76.2289 95.7619Q75.6947 95.8411 75.1573 95.8941Q74.6198 95.947 74.0804 95.9735Q73.5411 96 73.001 96L21.999 96Q21.459 96 20.9196 95.9735Q20.3802 95.947 19.8427 95.8941Q19.3053 95.8411 18.7711 95.7619Q18.2369 95.6826 17.7072 95.5773Q17.1775 95.4719 16.6537 95.3407Q16.1298 95.2095 15.613 95.0527Q15.0962 94.896 14.5878 94.714Q14.0793 94.5321 13.5803 94.3254Q13.0814 94.1188 12.5932 93.8878Q12.105 93.657 11.6287 93.4024Q11.1525 93.1478 10.6893 92.8702Q10.226 92.5925 9.77701 92.2925Q9.32798 91.9925 8.89421 91.6707Q8.46044 91.3491 8.04298 91.0065Q7.62552 90.6639 7.22537 90.3012Q6.82523 89.9385 6.44336 89.5566Q6.06149 89.1748 5.69882 88.7746Q5.33614 88.3745 4.99354 87.957Q4.65094 87.5396 4.32924 87.1058Q4.00753 86.672 3.7075 86.223Q3.40747 85.7739 3.12983 85.3107Q2.85219 84.8475 2.59761 84.3713Q2.34304 83.895 2.11214 83.4068Q1.88124 82.9186 1.67457 82.4196Q1.46791 81.9207 1.28597 81.4122Q1.10404 80.9037 0.947269 80.387Q0.790503 79.8702 0.659282 79.3463Q0.528062 78.8224 0.422705 78.2928Q0.317347 77.7631 0.238106 77.2289Q0.158865 76.6947 0.105931 76.1573Q0.0529975 75.6198 0.0264988 75.0804Q0 74.541 0 74.001L0 21.999Q0 21.459 0.0264988 20.9196Q0.0529975 20.3802 0.105931 19.8427Q0.158865 19.3053 0.238106 18.7711Q0.317347 18.2369 0.422705 17.7072Q0.528062 17.1775 0.659282 16.6537Q0.790503 16.1298 0.947269 15.613Q1.10404 15.0962 1.28597 14.5878Q1.46791 14.0793 1.67457 13.5803Q1.88124 13.0814 2.11214 12.5932Q2.34304 12.105 2.59761 11.6287Q2.85219 11.1525 3.12983 10.6893Q3.40747 10.226 3.7075 9.77701Q4.00753 9.32798 4.32924 8.89421Q4.65094 8.46044 4.99354 8.04298Q5.33614 7.62552 5.69882 7.22537Q6.06149 6.82523 6.44336 6.44336Q6.82523 6.06149 7.22537 5.69882Q7.62552 5.33614 8.04298 4.99354Q8.46044 4.65094 8.89421 4.32924Q9.32798 4.00753 9.77701 3.7075Q10.226 3.40747 10.6893 3.12983Q11.1525 2.85219 11.6287 2.59761Q12.105 2.34304 12.5932 2.11214Q13.0814 1.88124 13.5803 1.67457Q14.0793 1.46791 14.5878 1.28597Q15.0962 1.10404 15.613 0.947269Q16.1298 0.790503 16.6537 0.659282Q17.1775 0.528062 17.7072 0.422705Q18.2369 0.317347 18.7711 0.238106Q19.3053 0.158865 19.8427 0.105931Q20.3802 0.0529975 20.9196 0.0264988Q21.459 0 21.999 0L21.999 0Z" id="path_1" />
    <path d="M21.999 0L73.001 0Q73.5411 0 74.0804 0.0264988Q74.6198 0.0529975 75.1573 0.105931Q75.6947 0.158865 76.2289 0.238106Q76.7631 0.317347 77.2928 0.422705Q77.8225 0.528062 78.3463 0.659282Q78.8702 0.790503 79.387 0.947269Q79.9038 1.10404 80.4122 1.28597Q80.9207 1.46791 81.4197 1.67457Q81.9186 1.88124 82.4068 2.11214Q82.895 2.34304 83.3713 2.59761Q83.8475 2.85219 84.3107 3.12983Q84.774 3.40747 85.223 3.7075Q85.672 4.00753 86.1058 4.32924Q86.5396 4.65094 86.957 4.99354Q87.3745 5.33614 87.7746 5.69882Q88.1748 6.06149 88.5566 6.44336Q88.9385 6.82523 89.3012 7.22537Q89.6639 7.62552 90.0065 8.04298Q90.3491 8.46044 90.6708 8.89421Q90.9925 9.32798 91.2925 9.77701Q91.5925 10.226 91.8702 10.6893Q92.1478 11.1525 92.4024 11.6287Q92.657 12.105 92.8879 12.5932Q93.1188 13.0814 93.3254 13.5803Q93.5321 14.0793 93.714 14.5878Q93.896 15.0962 94.0527 15.613Q94.2095 16.1298 94.3407 16.6537Q94.4719 17.1775 94.5773 17.7072Q94.6826 18.2369 94.7619 18.7711Q94.8411 19.3053 94.8941 19.8427Q94.947 20.3802 94.9735 20.9196Q95 21.459 95 21.999L95 74.001Q95 74.541 94.9735 75.0804Q94.947 75.6198 94.8941 76.1573Q94.8411 76.6947 94.7619 77.2289Q94.6826 77.7631 94.5773 78.2928Q94.4719 78.8224 94.3407 79.3463Q94.2095 79.8702 94.0527 80.387Q93.896 80.9037 93.714 81.4122Q93.5321 81.9207 93.3254 82.4196Q93.1188 82.9186 92.8879 83.4068Q92.657 83.895 92.4024 84.3713Q92.1478 84.8475 91.8702 85.3107Q91.5925 85.7739 91.2925 86.223Q90.9925 86.672 90.6708 87.1058Q90.3491 87.5396 90.0065 87.957Q89.6639 88.3745 89.3012 88.7746Q88.9385 89.1748 88.5566 89.5566Q88.1748 89.9385 87.7746 90.3012Q87.3745 90.6639 86.957 91.0065Q86.5396 91.3491 86.1058 91.6707Q85.672 91.9925 85.223 92.2925Q84.774 92.5925 84.3108 92.8702Q83.8475 93.1478 83.3713 93.4024Q82.895 93.657 82.4068 93.8878Q81.9186 94.1188 81.4197 94.3254Q80.9207 94.5321 80.4122 94.714Q79.9038 94.896 79.387 95.0527Q78.8702 95.2095 78.3463 95.3407Q77.8225 95.4719 77.2928 95.5773Q76.7631 95.6826 76.2289 95.7619Q75.6947 95.8411 75.1573 95.8941Q74.6198 95.947 74.0804 95.9735Q73.5411 96 73.001 96L21.999 96Q21.459 96 20.9196 95.9735Q20.3802 95.947 19.8427 95.8941Q19.3053 95.8411 18.7711 95.7619Q18.2369 95.6826 17.7072 95.5773Q17.1775 95.4719 16.6537 95.3407Q16.1298 95.2095 15.613 95.0527Q15.0962 94.896 14.5878 94.714Q14.0793 94.5321 13.5803 94.3254Q13.0814 94.1188 12.5932 93.8878Q12.105 93.657 11.6287 93.4024Q11.1525 93.1478 10.6893 92.8702Q10.226 92.5925 9.77701 92.2925Q9.32798 91.9925 8.89421 91.6707Q8.46044 91.3491 8.04298 91.0065Q7.62552 90.6639 7.22537 90.3012Q6.82523 89.9385 6.44336 89.5566Q6.06149 89.1748 5.69882 88.7746Q5.33614 88.3745 4.99354 87.957Q4.65094 87.5396 4.32924 87.1058Q4.00753 86.672 3.7075 86.223Q3.40747 85.7739 3.12983 85.3107Q2.85219 84.8475 2.59761 84.3713Q2.34304 83.895 2.11214 83.4068Q1.88124 82.9186 1.67457 82.4196Q1.46791 81.9207 1.28597 81.4122Q1.10404 80.9037 0.947269 80.387Q0.790503 79.8702 0.659282 79.3463Q0.528062 78.8224 0.422705 78.2928Q0.317347 77.7631 0.238106 77.2289Q0.158865 76.6947 0.105931 76.1573Q0.0529975 75.6198 0.0264988 75.0804Q0 74.541 0 74.001L0 21.999Q0 21.459 0.0264988 20.9196Q0.0529975 20.3802 0.105931 19.8427Q0.158865 19.3053 0.238106 18.7711Q0.317347 18.2369 0.422705 17.7072Q0.528062 17.1775 0.659282 16.6537Q0.790503 16.1298 0.947269 15.613Q1.10404 15.0962 1.28597 14.5878Q1.46791 14.0793 1.67457 13.5803Q1.88124 13.0814 2.11214 12.5932Q2.34304 12.105 2.59761 11.6287Q2.85219 11.1525 3.12983 10.6893Q3.40747 10.226 3.7075 9.77701Q4.00753 9.32798 4.32924 8.89421Q4.65094 8.46044 4.99354 8.04298Q5.33614 7.62552 5.69882 7.22537Q6.06149 6.82523 6.44336 6.44336Q6.82523 6.06149 7.22537 5.69882Q7.62552 5.33614 8.04298 4.99354Q8.46044 4.65094 8.89421 4.32924Q9.32798 4.00753 9.77701 3.7075Q10.226 3.40747 10.6893 3.12983Q11.1525 2.85219 11.6287 2.59761Q12.105 2.34304 12.5932 2.11214Q13.0814 1.88124 13.5803 1.67457Q14.0793 1.46791 14.5878 1.28597Q15.0962 1.10404 15.613 0.947269Q16.1298 0.790503 16.6537 0.659282Q17.1775 0.528062 17.7072 0.422705Q18.2369 0.317347 18.7711 0.238106Q19.3053 0.158865 19.8427 0.105931Q20.3802 0.0529975 20.9196 0.0264988Q21.459 0 21.999 0L21.999 0Z" clip-path="url(#mask_1)" id="path_2" />
    <path d="M0 0L89 0L89 89L0 89L0 0Z" id="path_3" />
    <clipPath id="clip_1">
      <use xlink:href="#path_2" />
    </clipPath>
    <clipPath id="mask_1">
      <use xlink:href="#path_1" />
    </clipPath>
    <clipPath id="mask_2">
      <use xlink:href="#path_3" />
    </clipPath>
  </defs>
  <g id="Group-14" transform="translate(57 57)">
    <g id="add">
      <use xlink:href="#add" filter="url(#filter_1)" />
      <g id="plus" transform="translate(6 3.5986328)">
        <g id="Group">
          <path d="M0 0L89 0L89 89L0 89L0 0Z" id="Background" fill="#FFFFFF" fill-opacity="0" fill-rule="evenodd" stroke="none" />
          <g clip-path="url(#mask_2)">
            <path d="M44.5 22.25C46.036 22.25 47.2813 23.4952 47.2813 25.0313L47.2813 41.7188L63.9688 41.7188C64.9624 41.7188 65.8806 42.2489 66.3774 43.1094C66.8742 43.9699 66.8742 45.0301 66.3774 45.8906C65.8806 46.7511 64.9624 47.2813 63.9688 47.2813L47.2813 47.2813L47.2813 63.9688C47.2813 64.9624 46.7511 65.8806 45.8906 66.3774C45.0301 66.8742 43.9699 66.8742 43.1094 66.3774C42.2489 65.8806 41.7188 64.9624 41.7188 63.9688L41.7188 47.2813L25.0313 47.2813C24.0376 47.2813 23.1194 46.7511 22.6226 45.8906C22.1258 45.0301 22.1258 43.9699 22.6226 43.1094C23.1194 42.2489 24.0376 41.7188 25.0313 41.7188L41.7188 41.7188L41.7188 25.0313C41.7188 23.4952 42.964 22.25 44.5 22.25L44.5 22.25Z" id="Shape" fill="#000000" stroke="none" />
          </g>
        </g>
      </g>
    </g>
  </g>
</svg>