<?xml version="1.0" encoding="utf-8"?>
<svg width="209px" height="210px" viewBox="0 0 209 210" version="1.1" xmlns:xlink="http://www.w3.org/1999/xlink" xmlns="http://www.w3.org/2000/svg">
  <defs>
    <filter filterUnits="userSpaceOnUse" color-interpolation-filters="sRGB" id="filter_1">
      <feFlood flood-opacity="0" result="BackgroundImageFix" />
      <feBlend mode="normal" in="SourceGraphic" in2="BackgroundImageFix" result="shape" />
      <feGaussianBlur stdDeviation="19" result="effect0_gaussianBlur" />
    </filter>
    <path d="M-1472 -217L-1421 -217Q-1420.46 -217 -1419.92 -216.974Q-1419.38 -216.947 -1418.84 -216.894Q-1418.31 -216.841 -1417.77 -216.762Q-1417.24 -216.683 -1416.71 -216.577Q-1416.18 -216.472 -1415.65 -216.341Q-1415.13 -216.209 -1414.61 -216.053Q-1414.1 -215.896 -1413.59 -215.714Q-1413.08 -215.532 -1412.58 -215.325Q-1412.08 -215.119 -1411.59 -214.888Q-1411.1 -214.657 -1410.63 -214.402Q-1410.15 -214.148 -1409.69 -213.87Q-1409.23 -213.593 -1408.78 -213.292Q-1408.33 -212.992 -1407.89 -212.671Q-1407.46 -212.349 -1407.04 -212.006Q-1406.63 -211.664 -1406.23 -211.301Q-1405.83 -210.938 -1405.44 -210.557Q-1405.06 -210.175 -1404.7 -209.775Q-1404.34 -209.374 -1403.99 -208.957Q-1403.65 -208.54 -1403.33 -208.106Q-1403.01 -207.672 -1402.71 -207.223Q-1402.41 -206.774 -1402.13 -206.311Q-1401.85 -205.848 -1401.6 -205.371Q-1401.34 -204.895 -1401.11 -204.407Q-1400.88 -203.919 -1400.67 -203.42Q-1400.47 -202.921 -1400.29 -202.412Q-1400.1 -201.904 -1399.95 -201.387Q-1399.79 -200.87 -1399.66 -200.346Q-1399.53 -199.822 -1399.42 -199.293Q-1399.32 -198.763 -1399.24 -198.229Q-1399.16 -197.695 -1399.11 -197.157Q-1399.05 -196.62 -1399.03 -196.08Q-1399 -195.541 -1399 -195.001L-1399 -142.999Q-1399 -142.459 -1399.03 -141.92Q-1399.05 -141.38 -1399.11 -140.843Q-1399.16 -140.305 -1399.24 -139.771Q-1399.32 -139.237 -1399.42 -138.707Q-1399.53 -138.178 -1399.66 -137.654Q-1399.79 -137.13 -1399.95 -136.613Q-1400.1 -136.096 -1400.29 -135.588Q-1400.47 -135.079 -1400.67 -134.58Q-1400.88 -134.081 -1401.11 -133.593Q-1401.34 -133.105 -1401.6 -132.629Q-1401.85 -132.152 -1402.13 -131.689Q-1402.41 -131.226 -1402.71 -130.777Q-1403.01 -130.328 -1403.33 -129.894Q-1403.65 -129.46 -1403.99 -129.043Q-1404.34 -128.626 -1404.7 -128.225Q-1405.06 -127.825 -1405.44 -127.443Q-1405.83 -127.061 -1406.23 -126.699Q-1406.63 -126.336 -1407.04 -125.994Q-1407.46 -125.651 -1407.89 -125.329Q-1408.33 -125.008 -1408.78 -124.707Q-1409.23 -124.407 -1409.69 -124.13Q-1410.15 -123.852 -1410.63 -123.598Q-1411.1 -123.343 -1411.59 -123.112Q-1412.08 -122.881 -1412.58 -122.675Q-1413.08 -122.468 -1413.59 -122.286Q-1414.1 -122.104 -1414.61 -121.947Q-1415.13 -121.79 -1415.65 -121.659Q-1416.18 -121.528 -1416.71 -121.423Q-1417.24 -121.317 -1417.77 -121.238Q-1418.31 -121.159 -1418.84 -121.106Q-1419.38 -121.053 -1419.92 -121.026Q-1420.46 -121 -1421 -121L-1472 -121Q-1472.54 -121 -1473.08 -121.026Q-1473.62 -121.053 -1474.16 -121.106Q-1474.69 -121.159 -1475.23 -121.238Q-1475.76 -121.317 -1476.29 -121.423Q-1476.82 -121.528 -1477.35 -121.659Q-1477.87 -121.79 -1478.39 -121.947Q-1478.9 -122.104 -1479.41 -122.286Q-1479.92 -122.468 -1480.42 -122.675Q-1480.92 -122.881 -1481.41 -123.112Q-1481.89 -123.343 -1482.37 -123.598Q-1482.85 -123.852 -1483.31 -124.13Q-1483.77 -124.407 -1484.22 -124.707Q-1484.67 -125.008 -1485.11 -125.329Q-1485.54 -125.651 -1485.96 -125.994Q-1486.37 -126.336 -1486.77 -126.699Q-1487.17 -127.061 -1487.56 -127.443Q-1487.94 -127.825 -1488.3 -128.225Q-1488.66 -128.626 -1489.01 -129.043Q-1489.35 -129.46 -1489.67 -129.894Q-1489.99 -130.328 -1490.29 -130.777Q-1490.59 -131.226 -1490.87 -131.689Q-1491.15 -132.152 -1491.4 -132.629Q-1491.66 -133.105 -1491.89 -133.593Q-1492.12 -134.081 -1492.33 -134.58Q-1492.53 -135.079 -1492.71 -135.588Q-1492.9 -136.096 -1493.05 -136.613Q-1493.21 -137.13 -1493.34 -137.654Q-1493.47 -138.178 -1493.58 -138.707Q-1493.68 -139.237 -1493.76 -139.771Q-1493.84 -140.305 -1493.89 -140.843Q-1493.95 -141.38 -1493.97 -141.92Q-1494 -142.459 -1494 -142.999L-1494 -195.001Q-1494 -195.541 -1493.97 -196.08Q-1493.95 -196.62 -1493.89 -197.157Q-1493.84 -197.695 -1493.76 -198.229Q-1493.68 -198.763 -1493.58 -199.293Q-1493.47 -199.822 -1493.34 -200.346Q-1493.21 -200.87 -1493.05 -201.387Q-1492.9 -201.904 -1492.71 -202.412Q-1492.53 -202.921 -1492.33 -203.42Q-1492.12 -203.919 -1491.89 -204.407Q-1491.66 -204.895 -1491.4 -205.371Q-1491.15 -205.848 -1490.87 -206.311Q-1490.59 -206.774 -1490.29 -207.223Q-1489.99 -207.672 -1489.67 -208.106Q-1489.35 -208.54 -1489.01 -208.957Q-1488.66 -209.374 -1488.3 -209.775Q-1487.94 -210.175 -1487.56 -210.557Q-1487.17 -210.938 -1486.77 -211.301Q-1486.37 -211.664 -1485.96 -212.006Q-1485.54 -212.349 -1485.11 -212.671Q-1484.67 -212.992 -1484.22 -213.292Q-1483.77 -213.593 -1483.31 -213.87Q-1482.85 -214.148 -1482.37 -214.402Q-1481.89 -214.657 -1481.41 -214.888Q-1480.92 -215.119 -1480.42 -215.325Q-1479.92 -215.532 -1479.41 -215.714Q-1478.9 -215.896 -1478.39 -216.053Q-1477.87 -216.209 -1477.35 -216.341Q-1476.82 -216.472 -1476.29 -216.577Q-1475.76 -216.683 -1475.23 -216.762Q-1474.69 -216.841 -1474.16 -216.894Q-1473.62 -216.947 -1473.08 -216.974Q-1472.54 -217 -1472 -217Z" id="path_1" />
    <path d="M-1472 -217L-1421 -217Q-1420.46 -217 -1419.92 -216.974Q-1419.38 -216.947 -1418.84 -216.894Q-1418.31 -216.841 -1417.77 -216.762Q-1417.24 -216.683 -1416.71 -216.577Q-1416.18 -216.472 -1415.65 -216.341Q-1415.13 -216.209 -1414.61 -216.053Q-1414.1 -215.896 -1413.59 -215.714Q-1413.08 -215.532 -1412.58 -215.325Q-1412.08 -215.119 -1411.59 -214.888Q-1411.1 -214.657 -1410.63 -214.402Q-1410.15 -214.148 -1409.69 -213.87Q-1409.23 -213.593 -1408.78 -213.292Q-1408.33 -212.992 -1407.89 -212.671Q-1407.46 -212.349 -1407.04 -212.006Q-1406.63 -211.664 -1406.23 -211.301Q-1405.83 -210.938 -1405.44 -210.557Q-1405.06 -210.175 -1404.7 -209.775Q-1404.34 -209.374 -1403.99 -208.957Q-1403.65 -208.54 -1403.33 -208.106Q-1403.01 -207.672 -1402.71 -207.223Q-1402.41 -206.774 -1402.13 -206.311Q-1401.85 -205.848 -1401.6 -205.371Q-1401.34 -204.895 -1401.11 -204.407Q-1400.88 -203.919 -1400.67 -203.42Q-1400.47 -202.921 -1400.29 -202.412Q-1400.1 -201.904 -1399.95 -201.387Q-1399.79 -200.87 -1399.66 -200.346Q-1399.53 -199.822 -1399.42 -199.293Q-1399.32 -198.763 -1399.24 -198.229Q-1399.16 -197.695 -1399.11 -197.157Q-1399.05 -196.62 -1399.03 -196.08Q-1399 -195.541 -1399 -195.001L-1399 -142.999Q-1399 -142.459 -1399.03 -141.92Q-1399.05 -141.38 -1399.11 -140.843Q-1399.16 -140.305 -1399.24 -139.771Q-1399.32 -139.237 -1399.42 -138.707Q-1399.53 -138.178 -1399.66 -137.654Q-1399.79 -137.13 -1399.95 -136.613Q-1400.1 -136.096 -1400.29 -135.588Q-1400.47 -135.079 -1400.67 -134.58Q-1400.88 -134.081 -1401.11 -133.593Q-1401.34 -133.105 -1401.6 -132.629Q-1401.85 -132.152 -1402.13 -131.689Q-1402.41 -131.226 -1402.71 -130.777Q-1403.01 -130.328 -1403.33 -129.894Q-1403.65 -129.46 -1403.99 -129.043Q-1404.34 -128.626 -1404.7 -128.225Q-1405.06 -127.825 -1405.44 -127.443Q-1405.83 -127.061 -1406.23 -126.699Q-1406.63 -126.336 -1407.04 -125.994Q-1407.46 -125.651 -1407.89 -125.329Q-1408.33 -125.008 -1408.78 -124.707Q-1409.23 -124.407 -1409.69 -124.13Q-1410.15 -123.852 -1410.63 -123.598Q-1411.1 -123.343 -1411.59 -123.112Q-1412.08 -122.881 -1412.58 -122.675Q-1413.08 -122.468 -1413.59 -122.286Q-1414.1 -122.104 -1414.61 -121.947Q-1415.13 -121.79 -1415.65 -121.659Q-1416.18 -121.528 -1416.71 -121.423Q-1417.24 -121.317 -1417.77 -121.238Q-1418.31 -121.159 -1418.84 -121.106Q-1419.38 -121.053 -1419.92 -121.026Q-1420.46 -121 -1421 -121L-1472 -121Q-1472.54 -121 -1473.08 -121.026Q-1473.62 -121.053 -1474.16 -121.106Q-1474.69 -121.159 -1475.23 -121.238Q-1475.76 -121.317 -1476.29 -121.423Q-1476.82 -121.528 -1477.35 -121.659Q-1477.87 -121.79 -1478.39 -121.947Q-1478.9 -122.104 -1479.41 -122.286Q-1479.92 -122.468 -1480.42 -122.675Q-1480.92 -122.881 -1481.41 -123.112Q-1481.89 -123.343 -1482.37 -123.598Q-1482.85 -123.852 -1483.31 -124.13Q-1483.77 -124.407 -1484.22 -124.707Q-1484.67 -125.008 -1485.11 -125.329Q-1485.54 -125.651 -1485.96 -125.994Q-1486.37 -126.336 -1486.77 -126.699Q-1487.17 -127.061 -1487.56 -127.443Q-1487.94 -127.825 -1488.3 -128.225Q-1488.66 -128.626 -1489.01 -129.043Q-1489.35 -129.46 -1489.67 -129.894Q-1489.99 -130.328 -1490.29 -130.777Q-1490.59 -131.226 -1490.87 -131.689Q-1491.15 -132.152 -1491.4 -132.629Q-1491.66 -133.105 -1491.89 -133.593Q-1492.12 -134.081 -1492.33 -134.58Q-1492.53 -135.079 -1492.71 -135.588Q-1492.9 -136.096 -1493.05 -136.613Q-1493.21 -137.13 -1493.34 -137.654Q-1493.47 -138.178 -1493.58 -138.707Q-1493.68 -139.237 -1493.76 -139.771Q-1493.84 -140.305 -1493.89 -140.843Q-1493.95 -141.38 -1493.97 -141.92Q-1494 -142.459 -1494 -142.999L-1494 -195.001Q-1494 -195.541 -1493.97 -196.08Q-1493.95 -196.62 -1493.89 -197.157Q-1493.84 -197.695 -1493.76 -198.229Q-1493.68 -198.763 -1493.58 -199.293Q-1493.47 -199.822 -1493.34 -200.346Q-1493.21 -200.87 -1493.05 -201.387Q-1492.9 -201.904 -1492.71 -202.412Q-1492.53 -202.921 -1492.33 -203.42Q-1492.12 -203.919 -1491.89 -204.407Q-1491.66 -204.895 -1491.4 -205.371Q-1491.15 -205.848 -1490.87 -206.311Q-1490.59 -206.774 -1490.29 -207.223Q-1489.99 -207.672 -1489.67 -208.106Q-1489.35 -208.54 -1489.01 -208.957Q-1488.66 -209.374 -1488.3 -209.775Q-1487.94 -210.175 -1487.56 -210.557Q-1487.17 -210.938 -1486.77 -211.301Q-1486.37 -211.664 -1485.96 -212.006Q-1485.54 -212.349 -1485.11 -212.671Q-1484.67 -212.992 -1484.22 -213.292Q-1483.77 -213.593 -1483.31 -213.87Q-1482.85 -214.148 -1482.37 -214.402Q-1481.89 -214.657 -1481.41 -214.888Q-1480.92 -215.119 -1480.42 -215.325Q-1479.92 -215.532 -1479.41 -215.714Q-1478.9 -215.896 -1478.39 -216.053Q-1477.87 -216.209 -1477.35 -216.341Q-1476.82 -216.472 -1476.29 -216.577Q-1475.76 -216.683 -1475.23 -216.762Q-1474.69 -216.841 -1474.16 -216.894Q-1473.62 -216.947 -1473.08 -216.974Q-1472.54 -217 -1472 -217Z" clip-path="url(#mask_1)" id="path_2" />
    <clipPath id="clip_1">
      <use xlink:href="#path_2" />
    </clipPath>
    <clipPath id="mask_1">
      <use xlink:href="#path_1" />
    </clipPath>
  </defs>
  <g id="Rectangle-4" filter="url(#filter_1)">
    <use stroke="none" fill="#00BCD4" xlink:href="#path_2" fill-rule="evenodd" />
    <g clip-path="url(#clip_1)">
      <use xlink:href="#path_2" fill="none" stroke="#00BCD4" stroke-width="2" />
    </g>
  </g>
</svg>