<?xml version="1.0" encoding="utf-8"?>
<svg width="91px" height="96px" viewBox="0 0 91 96" version="1.1" xmlns:xlink="http://www.w3.org/1999/xlink" xmlns="http://www.w3.org/2000/svg">
  <g id="bullet-menu">
    <path d="M19.999 0L71.001 0Q71.492 0 71.9823 0.0240897Q72.4727 0.0481793 72.9613 0.0963006Q73.4498 0.144422 73.9355 0.216459Q74.4211 0.288496 74.9026 0.384275Q75.3841 0.480054 75.8604 0.599345Q76.3366 0.718635 76.8064 0.86115Q77.2762 1.00366 77.7384 1.16906Q78.2007 1.33446 78.6543 1.52233Q79.1079 1.71021 79.5517 1.92012Q79.9955 2.13003 80.4285 2.36146Q80.8614 2.59289 81.2825 2.84529Q81.7036 3.09768 82.1118 3.37044Q82.5201 3.64319 82.9144 3.93565Q83.3087 4.22811 83.6882 4.53956Q84.0677 4.85102 84.4315 5.18072Q84.7953 5.51042 85.1424 5.85757Q85.4896 6.20472 85.8193 6.56849Q86.149 6.93226 86.4604 7.31177Q86.7719 7.69128 87.0643 8.08561Q87.3568 8.47994 87.6296 8.88815Q87.9023 9.29636 88.1547 9.71746Q88.4071 10.1386 88.6385 10.5715Q88.87 11.0045 89.0799 11.4483Q89.2898 11.8921 89.4777 12.3457Q89.6655 12.7993 89.8309 13.2615Q89.9963 13.7238 90.1388 14.1936Q90.2814 14.6634 90.4007 15.1396Q90.5199 15.6159 90.6157 16.0974Q90.7115 16.5789 90.7835 17.0645Q90.8556 17.5502 90.9037 18.0388Q90.9518 18.5273 90.9759 19.0177Q91 19.5081 91 19.999L91 76.001Q91 76.492 90.9759 76.9823Q90.9518 77.4727 90.9037 77.9613Q90.8556 78.4498 90.7835 78.9355Q90.7115 79.4211 90.6157 79.9026Q90.5199 80.3841 90.4007 80.8604Q90.2814 81.3366 90.1388 81.8064Q89.9963 82.2762 89.8309 82.7384Q89.6655 83.2007 89.4777 83.6543Q89.2898 84.1078 89.0799 84.5517Q88.87 84.9955 88.6385 85.4285Q88.4071 85.8614 88.1547 86.2825Q87.9023 86.7036 87.6296 87.1118Q87.3568 87.5201 87.0643 87.9144Q86.7719 88.3087 86.4604 88.6882Q86.149 89.0677 85.8193 89.4315Q85.4896 89.7953 85.1424 90.1424Q84.7953 90.4896 84.4315 90.8193Q84.0677 91.149 83.6882 91.4604Q83.3087 91.7719 82.9144 92.0643Q82.5201 92.3568 82.1118 92.6295Q81.7036 92.9023 81.2825 93.1547Q80.8614 93.4071 80.4285 93.6385Q79.9955 93.87 79.5517 94.0799Q79.1079 94.2898 78.6543 94.4777Q78.2007 94.6655 77.7384 94.8309Q77.2762 94.9963 76.8064 95.1388Q76.3366 95.2813 75.8604 95.4006Q75.3841 95.5199 74.9026 95.6157Q74.4211 95.7115 73.9355 95.7835Q73.4498 95.8556 72.9612 95.9037Q72.4727 95.9518 71.9823 95.9759Q71.492 96 71.001 96L19.999 96Q19.5081 96 19.0177 95.9759Q18.5273 95.9518 18.0388 95.9037Q17.5502 95.8556 17.0645 95.7835Q16.5789 95.7115 16.0974 95.6157Q15.6159 95.5199 15.1396 95.4006Q14.6634 95.2813 14.1936 95.1388Q13.7238 94.9963 13.2615 94.8309Q12.7993 94.6655 12.3457 94.4777Q11.8921 94.2898 11.4483 94.0799Q11.0045 93.87 10.5715 93.6385Q10.1386 93.4071 9.71746 93.1547Q9.29636 92.9023 8.88815 92.6295Q8.47994 92.3568 8.08561 92.0643Q7.69128 91.7719 7.31177 91.4604Q6.93226 91.149 6.56849 90.8193Q6.20472 90.4896 5.85757 90.1424Q5.51042 89.7953 5.18072 89.4315Q4.85102 89.0677 4.53956 88.6882Q4.22811 88.3087 3.93565 87.9144Q3.64319 87.5201 3.37044 87.1118Q3.09768 86.7036 2.84529 86.2825Q2.59289 85.8614 2.36146 85.4285Q2.13003 84.9955 1.92012 84.5517Q1.71021 84.1078 1.52233 83.6543Q1.33446 83.2007 1.16906 82.7384Q1.00366 82.2762 0.86115 81.8064Q0.718635 81.3366 0.599345 80.8603Q0.480054 80.3841 0.384275 79.9026Q0.288496 79.4211 0.216459 78.9355Q0.144422 78.4498 0.0963006 77.9612Q0.0481793 77.4727 0.0240897 76.9823Q0 76.492 0 76.001L0 19.999Q0 19.5081 0.0240897 19.0177Q0.0481793 18.5273 0.0963006 18.0388Q0.144422 17.5502 0.216459 17.0645Q0.288496 16.5789 0.384275 16.0974Q0.480054 15.6159 0.599345 15.1396Q0.718635 14.6634 0.86115 14.1936Q1.00366 13.7238 1.16906 13.2615Q1.33446 12.7993 1.52233 12.3457Q1.71021 11.8921 1.92012 11.4483Q2.13003 11.0045 2.36146 10.5715Q2.59289 10.1386 2.84529 9.71746Q3.09768 9.29636 3.37044 8.88815Q3.64319 8.47994 3.93565 8.08561Q4.22811 7.69128 4.53956 7.31177Q4.85102 6.93226 5.18072 6.56849Q5.51042 6.20472 5.85757 5.85757Q6.20472 5.51042 6.56849 5.18072Q6.93226 4.85102 7.31177 4.53956Q7.69128 4.22811 8.08561 3.93565Q8.47994 3.64319 8.88815 3.37044Q9.29636 3.09768 9.71746 2.84529Q10.1386 2.59289 10.5715 2.36146Q11.0045 2.13003 11.4483 1.92012Q11.8921 1.71021 12.3457 1.52233Q12.7993 1.33446 13.2615 1.16906Q13.7238 1.00366 14.1936 0.86115Q14.6634 0.718635 15.1396 0.599345Q15.6159 0.480054 16.0974 0.384275Q16.5789 0.288496 17.0645 0.216459Q17.5502 0.144422 18.0388 0.0963006Q18.5273 0.0481793 19.0177 0.0240897Q19.5081 0 19.999 0Z" id="Rectangle-2" fill="#00BCD4" fill-rule="evenodd" stroke="none" />
    <path d="M21 35.2071C21 29.0179 26.0174 24.0005 32.2066 24.0005C38.3959 24.0005 43.4132 29.0179 43.4132 35.2071C43.4132 41.3963 38.3959 46.4137 32.2066 46.4137C26.0174 46.4137 21 41.3963 21 35.2071Z" id="Oval" fill="#000000" fill-rule="evenodd" stroke="none" />
    <path d="M48.5859 35.2066C48.5859 29.0174 53.6033 24 59.7925 24C65.9818 24 70.9992 29.0174 70.9992 35.2066C70.9992 41.3959 65.9818 46.4132 59.7925 46.4132C53.6033 46.4132 48.5859 41.3959 48.5859 35.2066Z" id="Oval-3" fill="#000000" fill-rule="evenodd" stroke="none" />
    <path d="M21 62.7933C21 56.604 26.0174 51.5867 32.2066 51.5867C38.3959 51.5867 43.4132 56.604 43.4132 62.7933C43.4132 68.9825 38.3959 73.9999 32.2066 73.9999C26.0174 73.9999 21 68.9825 21 62.7933Z" id="Oval-Copy" fill="#000000" fill-rule="evenodd" stroke="none" />
    <path d="M48.5859 62.793C48.5859 56.6038 53.6033 51.5864 59.7925 51.5864C65.9818 51.5864 70.9992 56.6038 70.9992 62.793C70.9992 68.9823 65.9818 73.9996 59.7925 73.9996C53.6033 73.9996 48.5859 68.9823 48.5859 62.793Z" id="Oval-3-Copy" fill="#000000" fill-rule="evenodd" stroke="none" />
  </g>
</svg>