<?xml version="1.0" encoding="utf-8"?>
<svg width="31px" height="31px" viewBox="0 0 31 31" version="1.1" xmlns:xlink="http://www.w3.org/1999/xlink" xmlns="http://www.w3.org/2000/svg">
  <g id="film">
    <path d="M0 1.9375C1.15484e-07 0.867448 0.867448 0 1.9375 0L29.0625 0C30.1326 0 31 0.867448 31 1.9375L31 29.0625C31 30.1326 30.1326 31 29.0625 31L1.9375 31C0.867448 31 0 30.1326 0 29.0625L0 1.9375L0 1.9375ZM7.75 1.9375L7.75 13.5625L23.25 13.5625L23.25 1.9375L7.75 1.9375L7.75 1.9375ZM23.25 17.4375L7.75 17.4375L7.75 29.0625L23.25 29.0625L23.25 17.4375L23.25 17.4375ZM1.9375 1.9375L1.9375 5.8125L5.8125 5.8125L5.8125 1.9375L1.9375 1.9375L1.9375 1.9375ZM5.8125 7.75L1.9375 7.75L1.9375 11.625L5.8125 11.625L5.8125 7.75L5.8125 7.75ZM1.9375 13.5625L1.9375 17.4375L5.8125 17.4375L5.8125 13.5625L1.9375 13.5625L1.9375 13.5625ZM5.8125 19.375L1.9375 19.375L1.9375 23.25L5.8125 23.25L5.8125 19.375L5.8125 19.375ZM1.9375 25.1875L1.9375 29.0625L5.8125 29.0625L5.8125 25.1875L1.9375 25.1875L1.9375 25.1875ZM29.0625 1.9375L25.1875 1.9375L25.1875 5.8125L29.0625 5.8125L29.0625 1.9375L29.0625 1.9375ZM25.1875 7.75L25.1875 11.625L29.0625 11.625L29.0625 7.75L25.1875 7.75L25.1875 7.75ZM29.0625 13.5625L25.1875 13.5625L25.1875 17.4375L29.0625 17.4375L29.0625 13.5625L29.0625 13.5625ZM25.1875 19.375L25.1875 23.25L29.0625 23.25L29.0625 19.375L25.1875 19.375L25.1875 19.375ZM29.0625 25.1875L25.1875 25.1875L25.1875 29.0625L29.0625 29.0625L29.0625 25.1875L29.0625 25.1875Z" id="Shape" fill="#000000" fill-rule="evenodd" stroke="none" />
  </g>
</svg>