<?xml version="1.0" encoding="utf-8"?>
<svg width="67.84375px" height="70.03223px" viewBox="0 0 67.84375 70.03223" version="1.1" xmlns:xlink="http://www.w3.org/1999/xlink" xmlns="http://www.w3.org/2000/svg">
  <defs>
    <path d="M0 0L67.8438 0L67.8438 70.0323L0 70.0323L0 0Z" id="path_1" />
    <clipPath id="mask_1">
      <use xlink:href="#path_1" />
    </clipPath>
  </defs>
  <g id="github">
    <path d="M0 0L67.8438 0L67.8438 70.0323L0 70.0323L0 0Z" id="Background" fill="#FFFFFF" fill-opacity="0" fill-rule="evenodd" stroke="none" />
    <g clip-path="url(#mask_1)">
      <path d="M22.692 54.3571C22.692 54.6307 22.3774 54.8495 21.9808 54.8495C21.5294 54.8906 21.2148 54.6717 21.2148 54.3571C21.2148 54.0835 21.5294 53.8647 21.9261 53.8647C22.3364 53.8237 22.692 54.0425 22.692 54.3571L22.692 54.3571ZM18.4382 53.7415C18.3424 54.0151 18.616 54.3297 19.0263 54.4117C19.382 54.5485 19.7923 54.4117 19.8744 54.1382C19.9564 53.8646 19.6966 53.55 19.2862 53.4269C18.9306 53.3312 18.5339 53.4679 18.4382 53.7415L18.4382 53.7415ZM24.4839 53.509C24.0873 53.6048 23.8137 53.8647 23.8547 54.1793C23.8958 54.4528 24.2514 54.6306 24.6618 54.5349C25.0584 54.4391 25.332 54.1793 25.291 53.9057C25.2499 53.6458 24.8806 53.468 24.4839 53.509L24.4839 53.509ZM33.4842 1.09425C14.5125 1.09425 0 15.4974 0 34.469C0 49.6381 9.54737 62.6187 23.1845 67.1872C24.9353 67.5018 25.5508 66.4212 25.5508 65.5321C25.5508 64.6841 25.5098 60.0062 25.5098 57.1337C25.5098 57.1337 15.9351 59.1855 13.9244 53.0576C13.9244 53.0576 12.3651 49.0773 10.1218 48.0514C10.1218 48.0514 6.98955 45.904 10.3407 45.945C10.3407 45.945 13.7466 46.2186 15.6205 49.474C18.616 54.7537 23.6359 53.2355 25.5919 52.3327C25.9065 50.1442 26.7955 48.6259 27.7804 47.7232C20.1343 46.8751 12.4198 45.7672 12.4198 32.6088C12.4198 28.8473 13.4593 26.9597 15.6478 24.5523C15.2922 23.6632 14.1296 19.9975 16.0035 15.2648C18.8622 14.3758 25.4414 18.958 25.4414 18.958C28.177 18.192 31.1178 17.7953 34.0313 17.7953C36.9448 17.7953 39.8856 18.192 42.6212 18.958C42.6212 18.958 49.2004 14.3621 52.0591 15.2648C53.933 20.0112 52.7704 23.6632 52.4148 24.5523C54.6033 26.9734 55.9437 28.861 55.9437 32.6088C55.9437 45.8082 47.8873 46.8614 40.2412 47.7232C41.4996 48.8037 42.5665 50.8555 42.5665 54.0698C42.5665 58.6794 42.5254 64.3832 42.5254 65.5048C42.5254 66.3939 43.1546 67.4744 44.8918 67.1598C58.5699 62.6187 67.8438 49.6381 67.8438 34.469C67.8438 15.4974 52.4558 1.09425 33.4842 1.09425L33.4842 1.09425ZM13.2953 48.2702C13.1175 48.407 13.1585 48.7216 13.3911 48.9815C13.6099 49.2003 13.9245 49.2961 14.1023 49.1183C14.2801 48.9815 14.2391 48.6669 14.0066 48.407C13.7877 48.1881 13.4731 48.0924 13.2953 48.2702L13.2953 48.2702ZM11.8179 47.1624C11.7221 47.3402 11.8589 47.559 12.1325 47.6958C12.3513 47.8326 12.6249 47.7916 12.7206 47.6001C12.8164 47.4223 12.6796 47.2034 12.406 47.0666C12.1325 46.9846 11.9136 47.0256 11.8179 47.1624L11.8179 47.1624ZM16.2498 52.0317C16.0309 52.2096 16.113 52.6199 16.4276 52.8798C16.7422 53.1944 17.1388 53.2354 17.3167 53.0166C17.4945 52.8388 17.4124 52.4284 17.1388 52.1685C16.8379 51.8539 16.4276 51.8129 16.2498 52.0317L16.2498 52.0317ZM14.6905 50.0211C14.4717 50.1579 14.4717 50.5135 14.6905 50.8281C14.9094 51.1427 15.2787 51.2795 15.4565 51.1427C15.6753 50.9649 15.6753 50.6093 15.4565 50.2947C15.265 49.9801 14.9094 49.8433 14.6905 50.0211L14.6905 50.0211Z" id="Shape" fill="#00BCD4" fill-rule="evenodd" stroke="none" />
    </g>
  </g>
</svg>