<?xml version="1.0" encoding="utf-8"?>
<svg width="62.918457px" height="71.8667px" viewBox="0 0 62.918457 71.8667" version="1.1" xmlns:xlink="http://www.w3.org/1999/xlink" xmlns="http://www.w3.org/2000/svg">
  <defs>
    <path d="M0.0106456 0L62.894 0L62.894 71.8667L0.0106456 71.8667L0.0106456 0Z" id="path_1" />
    <clipPath id="mask_1">
      <use xlink:href="#path_1" />
    </clipPath>
  </defs>
  <g id="instagram">
    <path d="M0.0106456 0L62.894 0L62.894 71.8667L0.0106456 71.8667L0.0106456 0Z" id="Background" fill="#FFFFFF" fill-opacity="0" fill-rule="evenodd" stroke="none" />
    <g clip-path="url(#mask_1)">
      <path d="M31.4663 19.7914C22.5391 19.7914 15.3384 26.9921 15.3384 35.9193C15.3384 44.8465 22.5391 52.0472 31.4663 52.0472C40.3935 52.0472 47.5942 44.8465 47.5942 35.9193C47.5942 26.9921 40.3935 19.7914 31.4663 19.7914L31.4663 19.7914ZM31.4662 46.4045C25.6972 46.4045 20.981 41.7023 20.981 35.9193C20.981 30.1362 25.6832 25.434 31.4662 25.434C37.2492 25.434 41.9514 30.1362 41.9514 35.9193C41.9514 41.7023 37.2352 46.4045 31.4662 46.4045L31.4662 46.4045ZM52.0156 19.1317C52.0156 21.2231 50.3312 22.8935 48.2538 22.8935C46.1624 22.8935 44.492 21.2091 44.492 19.1317C44.492 17.0543 46.1764 15.3699 48.2538 15.3699C50.3312 15.3699 52.0156 17.0543 52.0156 19.1317L52.0156 19.1317ZM62.6974 22.9496C62.4588 17.9105 61.3078 13.4469 57.6162 9.76932C53.9386 6.09176 49.475 4.94077 44.4359 4.68812C39.2424 4.39335 23.676 4.39335 18.4825 4.68812C13.4575 4.92674 8.99387 6.07773 5.30228 9.75528C1.61068 13.4328 0.473731 17.8964 0.221074 22.9355C-0.0736914 28.129 -0.0736914 43.6954 0.221074 48.8889C0.459694 53.928 1.61068 58.3916 5.30228 62.0692C8.99387 65.7467 13.4434 66.8977 18.4825 67.1504C23.676 67.4451 39.2424 67.4451 44.4359 67.1504C49.475 66.9118 53.9386 65.7608 57.6162 62.0692C61.2937 58.3916 62.4447 53.928 62.6974 48.8889C62.9921 43.6954 62.9921 28.143 62.6974 22.9496L62.6974 22.9496ZM55.9879 54.4614C54.893 57.2125 52.7735 59.332 50.0083 60.4409C45.8676 62.0832 36.042 61.7042 31.4661 61.7042C26.8903 61.7042 17.0507 62.0691 12.924 60.4409C10.1728 59.3461 8.05332 57.2266 6.94444 54.4614C5.30218 50.3206 5.68116 40.4951 5.68116 35.9192C5.68116 31.3433 5.31621 21.5037 6.94444 17.377C8.03929 14.6259 10.1588 12.5064 12.924 11.3975C17.0647 9.75522 26.8903 10.1342 31.4661 10.1342C36.042 10.1342 45.8816 9.76926 50.0083 11.3975C52.7595 12.4923 54.879 14.6118 55.9879 17.377C57.6301 21.5178 57.2511 31.3433 57.2511 35.9192C57.2511 40.4951 57.6301 50.3346 55.9879 54.4614L55.9879 54.4614Z" id="Shape" fill="#00BCD4" fill-rule="evenodd" stroke="none" />
    </g>
  </g>
</svg>