<?xml version="1.0" encoding="utf-8"?>
<svg width="66.5px" height="76px" viewBox="0 0 66.5 76" version="1.1" xmlns:xlink="http://www.w3.org/1999/xlink" xmlns="http://www.w3.org/2000/svg">
  <defs>
    <path d="M0 0L66.5 0L66.5 76L0 76L0 0Z" id="path_1" />
    <clipPath id="mask_1">
      <use xlink:href="#path_1" />
    </clipPath>
  </defs>
  <g id="linkedin">
    <path d="M0 0L66.5 0L66.5 76L0 76L0 0Z" id="Background" fill="#FFFFFF" fill-opacity="0" fill-rule="evenodd" stroke="none" />
    <g clip-path="url(#mask_1)">
      <path d="M61.75 4.75L4.73516 4.75C2.12266 4.75 0 6.90234 0 9.54453L0 66.4555C0 69.0977 2.12266 71.25 4.73516 71.25L61.75 71.25C64.3625 71.25 66.5 69.0977 66.5 66.4555L66.5 9.54453C66.5 6.90234 64.3625 4.75 61.75 4.75L61.75 4.75ZM20.0984 61.75L10.2422 61.75L10.2422 30.0141L20.1133 30.0141L20.1133 61.75L20.0984 61.75ZM15.1703 25.6797C12.0086 25.6797 9.4555 23.1117 9.4555 19.9648C9.4555 16.818 12.0086 14.25 15.1703 14.25C18.3172 14.25 20.8852 16.818 20.8852 19.9648C20.8852 23.1266 18.3321 25.6797 15.1703 25.6797L15.1703 25.6797ZM57.0445 61.75L47.1883 61.75L47.1883 46.3125C47.1883 42.6312 47.1141 37.8961 42.0672 37.8961C36.9313 37.8961 36.1445 41.9039 36.1445 46.0453L36.1445 61.75L26.2883 61.75L26.2883 30.014L35.7438 30.014L35.7438 34.3484L35.8774 34.3484C37.1984 31.8547 40.4195 29.2273 45.2141 29.2273C55.1891 29.2273 57.0445 35.8031 57.0445 44.3531L57.0445 61.75L57.0445 61.75Z" id="Shape" fill="#00BCD4" fill-rule="evenodd" stroke="none" />
    </g>
  </g>
</svg>