<?xml version="1.0" encoding="utf-8"?>
<svg width="310px" height="87px" viewBox="0 0 310 87" version="1.1" xmlns:xlink="http://www.w3.org/1999/xlink" xmlns="http://www.w3.org/2000/svg">
  <g id="NiceAnime">
    <g id="Nice" fill="#FFFFFF">
      <path d="M55.1094 24.4531Q55.6875 24.9688 56.625 24.9688Q57.6875 24.9688 58.4063 24.0156Q59.125 23.0625 59.125 21.7813Q59.125 20.9375 58.6563 20.3906Q58.1875 19.8438 57.1563 19.8438Q56.3125 19.8438 55.7188 20.2969Q55.125 20.75 54.8281 21.4688Q54.5313 22.1875 54.5313 22.9688Q54.5313 23.9375 55.1094 24.4531ZM12.625 20.6563L2.9375 66.3438L6.0625 66.3438L12.2813 36.9688Q12.5625 35.5 12.8438 34.0469Q13.125 32.5938 13.3906 31.1719Q13.6563 29.75 13.9063 28.3906Q14.1562 27.0313 14.375 25.7813L14.5 25.7813L31.0938 66.3438L34.1875 66.3438L43.8438 20.6563L40.7813 20.6563L34.4688 50.2188Q34.0938 51.9375 33.7188 53.875Q33.3437 55.8125 33 57.7031Q32.6563 59.5938 32.375 61.2188L32.25 61.2188L15.6875 20.6563L12.625 20.6563ZM74.2188 66.9688Q70.3125 66.9688 67.5313 65.3594Q64.75 63.75 63.2656 60.8438Q61.7813 57.9375 61.7813 54.0313Q61.7813 50.4688 62.5469 47.1563Q63.3125 43.8438 64.8125 41.0313Q66.3125 38.2188 68.4844 36.1406Q70.6563 34.0625 73.4844 32.8906Q76.3125 31.7188 79.6875 31.7188Q81.875 31.7188 84.0156 32.125Q86.1563 32.5313 87.7813 33.2813L86.875 36.0625Q85.4063 35.3438 83.4844 34.9219Q81.5625 34.5 79.6875 34.5Q76.3438 34.5 73.625 36.0156Q70.9063 37.5313 68.9844 40.2188Q67.0625 42.9063 66.0313 46.4219Q65 49.9375 65 53.9375Q65 56.9063 66.0781 59.2344Q67.1563 61.5625 69.2813 62.8906Q71.4063 64.2188 74.4688 64.2188Q76.75 64.2188 78.7188 63.6719Q80.6875 63.125 82.6563 62.2188L82.6563 65.0625Q81.0313 65.875 78.9375 66.4219Q76.8438 66.9688 74.2188 66.9688ZM96.9531 65.5625Q99.6875 66.9688 103.031 66.9688Q105.906 66.9688 108.313 66.3281Q110.719 65.6875 112.5 64.7813L112.5 61.9375Q110.625 62.8125 108.422 63.5156Q106.219 64.2188 103.594 64.2188Q99.1563 64.2188 96.6875 61.5469Q94.2188 58.875 94.2188 53.9063Q94.2188 53.0313 94.2813 52.1094Q94.3438 51.1875 94.4375 50.5625L96.1875 50.5625Q100.906 50.5625 104.719 49.875Q108.531 49.1875 111.281 47.8125Q114.031 46.4375 115.484 44.3125Q116.938 42.1875 116.938 39.2813Q116.938 35.8438 114.641 33.7813Q112.344 31.7188 108.281 31.7188Q104.5 31.7188 101.344 33.5156Q98.1875 35.3125 95.875 38.4219Q93.5625 41.5313 92.2813 45.5313Q91 49.5313 91 54Q91 58.4063 92.6094 61.2813Q94.2188 64.1563 96.9531 65.5625ZM53.0938 32.375L45.9063 66.3438L49.0625 66.3438L56.25 32.375L53.0938 32.375ZM97 47.8438L94.9063 47.8438Q95.875 43.5938 97.9375 40.5938Q100 37.5938 102.656 36.0313Q105.313 34.4688 108 34.4688Q110.906 34.4688 112.359 35.8906Q113.813 37.3125 113.813 39.5Q113.813 42.4375 111.594 44.2813Q109.375 46.125 105.578 46.9844Q101.781 47.8438 97 47.8438Z" />
    </g>
    <g id="Anime" fill="#00BCD4">
      <path d="M209.266 26.1875Q210.625 27.0625 212.625 27.0625Q215.5 27.0625 216.875 25.5156Q218.25 23.9688 218.25 21.4688Q218.25 19.3438 216.859 18.5313Q215.469 17.7188 213.594 17.7188Q211.813 17.7188 210.531 18.3438Q209.25 18.9688 208.578 20.1875Q207.906 21.4063 207.906 23.2188Q207.906 25.3125 209.266 26.1875ZM115.156 66.3438L139.094 20.6563L150.75 20.6563L155.344 66.3438L146.063 66.3438L145.313 55.4688L130.531 55.4688L125.156 66.3438L115.156 66.3438ZM134.438 47.3438L144.844 47.3438L144.031 35.5625Q143.906 33.6875 143.781 31.7813Q143.656 29.875 143.719 27.875L143.563 27.875Q142.969 29.5938 142.188 31.3125Q141.406 33.0313 140.438 34.9688L134.438 47.3438ZM160.344 66.3438L167.75 31.4063L174.938 31.4063L174.281 37.875L174.563 37.875Q175.906 35.7813 177.531 34.1875Q179.156 32.5938 181.141 31.6719Q183.125 30.75 185.563 30.75Q188.563 30.75 190.578 31.9844Q192.594 33.2188 193.594 35.4688Q194.594 37.7188 194.594 40.8125Q194.594 41.9688 194.406 43.4063Q194.219 44.8438 193.875 46.4375L189.719 66.3438L180.313 66.3438L184.594 45.9375Q184.844 44.875 184.969 43.9375Q185.094 43 185.094 42.2188Q185.094 40.25 184.25 39.3125Q183.406 38.375 181.719 38.375Q179.594 38.375 177.875 40.2031Q176.156 42.0313 174.891 45.0938Q173.625 48.1563 172.813 51.875L169.75 66.3438L160.344 66.3438ZM218 66.3438L225.406 31.4063L232.594 31.4063L231.938 37.875L232.219 37.875Q233.563 35.7813 235.188 34.1875Q236.813 32.5938 238.797 31.6719Q240.781 30.75 243.219 30.75Q246.813 30.75 248.797 32.6406Q250.781 34.5313 251.406 37.875L251.656 37.875Q252.969 35.7813 254.625 34.1875Q256.281 32.5938 258.328 31.6719Q260.375 30.75 262.781 30.75Q267.156 30.75 269.328 33.4688Q271.5 36.1875 271.5 40.8125Q271.5 41.9688 271.313 43.4063Q271.125 44.8438 270.781 46.4375L266.625 66.3438L257.219 66.3438L261.531 45.9375Q261.781 44.875 261.906 43.9375Q262.031 43 262.031 42.2188Q262.031 40.25 261.266 39.3125Q260.5 38.375 258.969 38.375Q257.344 38.375 255.969 39.4063Q254.594 40.4375 253.469 42.2813Q252.344 44.125 251.484 46.5625Q250.625 49 250.063 51.8125L247.063 66.3438L237.656 66.3438L241.938 45.9375Q242.188 44.875 242.313 43.9375Q242.438 43 242.438 42.2188Q242.438 40.25 241.672 39.3125Q240.906 38.375 239.375 38.375Q237.781 38.375 236.406 39.4375Q235.031 40.5 233.906 42.3594Q232.781 44.2188 231.922 46.6563Q231.063 49.0938 230.469 51.875L227.406 66.3438L218 66.3438ZM284.172 65.4844Q287.281 66.9688 291.375 66.9688Q295.125 66.9688 297.969 66.2969Q300.813 65.625 303.563 64.2813L303.563 57.1875Q300.5 58.625 298.25 59.25Q296 59.875 293.25 59.875Q290.281 59.875 288.656 58.2188Q287.031 56.5625 287.031 53.75Q287.031 53.4063 287.047 53.125Q287.063 52.8438 287.094 52.4688L288.688 52.4688Q293.781 52.4688 297.563 51.6094Q301.344 50.75 303.844 49.1406Q306.344 47.5313 307.578 45.2813Q308.813 43.0313 308.813 40.2813Q308.813 36.0938 305.891 33.4219Q302.969 30.75 297.094 30.75Q292.313 30.75 288.672 32.625Q285.031 34.5 282.547 37.7188Q280.063 40.9375 278.813 45.0156Q277.563 49.0938 277.563 53.4688Q277.563 58 279.313 61Q281.063 64 284.172 65.4844ZM206.406 31.4063L199 66.3438L208.406 66.3438L215.813 31.4063L206.406 31.4063ZM289.531 46.125L288.125 46.125Q288.688 43.5938 290 41.6563Q291.313 39.7188 293.031 38.625Q294.75 37.5313 296.5 37.5313Q298.063 37.5313 298.922 38.2656Q299.781 39 299.781 40.5Q299.781 42 298.734 43.2813Q297.688 44.5625 295.422 45.3438Q293.156 46.125 289.531 46.125Z" />
    </g>
  </g>
</svg>