<?xml version="1.0" encoding="utf-8"?>
<svg width="42px" height="42px" viewBox="0 0 42 42" version="1.1" xmlns:xlink="http://www.w3.org/1999/xlink" xmlns="http://www.w3.org/2000/svg">
  <defs>
    <path d="M0 0L42 0L42 42L0 42L0 0Z" id="path_1" />
    <clipPath id="mask_1">
      <use xlink:href="#path_1" />
    </clipPath>
  </defs>
  <g id="person">
    <path d="M0 0L42 0L42 42L0 42L0 0Z" id="Background" fill="#FFFFFF" fill-opacity="0" fill-rule="evenodd" stroke="none" />
    <g clip-path="url(#mask_1)">
      <path d="M21 21C25.3492 21 28.875 17.4743 28.875 13.125C28.875 8.77579 25.3493 5.25002 21 5.25C16.6508 5.24999 13.125 8.77572 13.125 13.125C13.125 17.4742 16.6507 21 20.9999 21L21 21ZM26.25 13.125C26.25 15.0006 25.2494 16.7338 23.625 17.6716C22.0006 18.6095 19.9994 18.6095 18.375 17.6716C16.7506 16.7338 15.75 15.0006 15.75 13.125C15.75 11.2494 16.7506 9.51619 18.375 8.57837C19.9994 7.64054 22.0006 7.64054 23.625 8.57837C25.2494 9.51619 26.25 11.2494 26.25 13.125L26.25 13.125ZM36.75 34.125C36.75 36.75 34.125 36.75 34.125 36.75L7.875 36.75C7.875 36.75 5.25 36.75 5.25 34.125C5.25 31.5 7.875 23.625 21 23.625C34.125 23.625 36.75 31.5 36.75 34.125L36.75 34.125ZM34.125 34.1145C34.1224 33.4688 33.7207 31.5263 31.941 29.7465C30.2295 28.035 27.0086 26.25 21 26.25C14.9888 26.25 11.7705 28.035 10.059 29.7465C8.27925 31.5263 7.88025 33.4688 7.875 34.1145L34.125 34.1145L34.125 34.1145Z" id="Shape" fill="#000000" fill-rule="evenodd" stroke="none" />
    </g>
  </g>
</svg>