<?xml version="1.0" encoding="utf-8"?>
<svg width="32px" height="31.999512px" viewBox="0 0 32 31.999512" version="1.1" xmlns:xlink="http://www.w3.org/1999/xlink" xmlns="http://www.w3.org/2000/svg">
  <defs>
    <path d="M0 0L31.9996 0L31.9996 31.9996L0 31.9996L0 0Z" id="path_1" />
    <clipPath id="mask_1">
      <use xlink:href="#path_1" />
    </clipPath>
  </defs>
  <g id="stack">
    <path d="M0 0L31.9996 0L31.9996 31.9996L0 31.9996L0 0Z" id="Background" fill="#FFFFFF" fill-opacity="0" fill-rule="evenodd" stroke="none" />
    <g clip-path="url(#mask_1)">
      <path d="M28.2406 20.3254L31.6705 22.0414C32.1105 22.2614 32.1105 22.8894 31.6705 23.1094L16.5347 30.6793C16.1985 30.8471 15.803 30.8471 15.4667 30.6793L0.330918 23.1094C0.129278 23.0077 0.00208339 22.8012 0.00208333 22.5754C0.00208333 22.3496 0.129278 22.143 0.330918 22.0414L3.76287 20.3254L14.3967 25.6434C15.4067 26.1473 16.5967 26.1473 17.6047 25.6434L28.2386 20.3234L28.2406 20.3254ZM15.4666 0.12583C15.8029 -0.0419434 16.1984 -0.0419434 16.5346 0.12583L31.6704 7.69373C31.8719 7.79601 31.9988 8.00279 31.9988 8.22873C31.9988 8.45466 31.8719 8.66144 31.6704 8.76372L16.5346 16.3296C16.1984 16.4974 15.8029 16.4974 15.4666 16.3296L0.330827 8.76372C0.128091 8.66248 5.96039e-08 8.45534 0 8.22873C0 8.00212 0.128091 7.79497 0.330827 7.69373L15.4666 0.12583L15.4666 0.12583Z" id="Shape" fill="#000000" fill-rule="evenodd" stroke="none" />
      <path d="M28.2406 13.1518L31.6705 14.8678C32.1105 15.0878 32.1105 15.7158 31.6705 15.9358L16.5347 23.5037C16.1985 23.6714 15.803 23.6714 15.4667 23.5037L0.330917 15.9358C0.129278 15.8341 0.00208339 15.6276 0.00208333 15.4018C0.00208333 15.176 0.129277 14.9694 0.330917 14.8678L3.76287 13.1518L14.3967 18.4697C15.4067 18.9737 16.5967 18.9737 17.6047 18.4697L28.2386 13.1518L28.2406 13.1518Z" id="Shape" fill="#000000" stroke="none" />
    </g>
  </g>
</svg>