<?xml version="1.0" encoding="utf-8"?>
<svg width="25px" height="25px" viewBox="0 0 25 25" version="1.1" xmlns:xlink="http://www.w3.org/1999/xlink" xmlns="http://www.w3.org/2000/svg">
  <defs>
    <path d="M0 0L25 0L25 25L0 25L0 0Z" id="path_1" />
    <clipPath id="mask_1">
      <use xlink:href="#path_1" />
    </clipPath>
  </defs>
  <g id="star-of-life">
    <path d="M0 0L25 0L25 25L0 25L0 0Z" id="Background" fill="#FFFFFF" fill-opacity="0" fill-rule="evenodd" stroke="none" />
    <g clip-path="url(#mask_1)">
      <path d="M10.1562 1.5625C10.1562 0.698242 10.8544 0 11.7187 0L13.2812 0C14.1454 0 14.8437 0.698242 14.8437 1.5625L14.8437 8.44238L20.8007 5.00488C21.5478 4.57519 22.5048 4.8291 22.9345 5.57617L23.7157 6.92871C24.1454 7.67578 23.8915 8.63281 23.1445 9.0625L17.1874 12.5L23.1445 15.9375C23.8915 16.3672 24.1454 17.3242 23.7157 18.0713L22.9345 19.4238C22.5048 20.1709 21.5478 20.4297 20.8007 19.9951L14.8437 16.5576L14.8437 23.4375C14.8437 24.3018 14.1454 25 13.2812 25L11.7187 25C10.8544 25 10.1562 24.3018 10.1562 23.4375L10.1562 16.5576L4.19914 20C3.45207 20.4297 2.49504 20.1758 2.06535 19.4287L1.2841 18.0762C0.854413 17.3291 1.10832 16.3721 1.85539 15.9424L7.81242 12.5L1.85539 9.0625C1.10832 8.63281 0.854413 7.67578 1.2841 6.92871L2.06535 5.57617C2.49504 4.82422 3.45207 4.57031 4.19914 5L10.1562 8.4375L10.1562 1.5625L10.1562 1.5625Z" id="Shape" fill="#00BCD4" stroke="none" />
    </g>
  </g>
</svg>