<?xml version="1.0" encoding="utf-8"?>
<svg width="77px" height="77px" viewBox="0 0 77 77" version="1.1" xmlns:xlink="http://www.w3.org/1999/xlink" xmlns="http://www.w3.org/2000/svg">
  <defs>
    <path d="M0 0L77 0L77 77L0 77L0 0Z" id="path_1" />
    <clipPath id="mask_1">
      <use xlink:href="#path_1" />
    </clipPath>
  </defs>
  <g id="twitter">
    <path d="M0 0L77 0L77 77L0 77L0 0Z" id="Background" fill="#FFFFFF" fill-opacity="0" fill-rule="evenodd" stroke="none" />
    <g clip-path="url(#mask_1)">
      <path d="M69.0849 22.8167C69.1338 23.5006 69.1338 24.1848 69.1338 24.8687C69.1338 45.7309 53.2551 69.7691 24.2335 69.7691C15.2925 69.7691 6.9867 67.1795 0 62.6848C1.27035 62.8313 2.49167 62.8801 3.8109 62.8801C11.1883 62.8801 17.9796 60.3885 23.4029 56.1378C16.4651 55.9912 10.651 51.4474 8.64776 45.1936C9.625 45.3401 10.6021 45.4378 11.6282 45.4378C13.045 45.4378 14.462 45.2423 15.7811 44.9005C8.55016 43.4346 3.12677 37.0832 3.12677 29.4125L3.12677 29.2171C5.22758 30.3897 7.67067 31.1226 10.2599 31.2202C6.00931 28.3864 3.22453 23.5495 3.22453 18.0774C3.22453 15.146 4.00611 12.4588 5.37421 10.1136C13.1426 19.6897 24.8197 25.9434 37.9135 26.6276C37.6692 25.455 37.5226 24.2337 37.5226 23.0122C37.5226 14.3154 44.5582 7.23109 53.3037 7.23109C57.8475 7.23109 61.9515 9.13654 64.8341 12.2146C68.4007 11.5306 71.8207 10.2114 74.85 8.40368C73.6773 12.0681 71.1856 15.1461 67.9122 17.1003C71.088 16.7585 74.166 15.8788 76.9997 14.6575C74.8503 17.7843 72.163 20.5691 69.0849 22.8167L69.0849 22.8167Z" id="Shape" fill="#00BCD4" fill-rule="evenodd" stroke="none" />
    </g>
  </g>
</svg>